# xmcd
# 
# Track frame offsets:
#     150
#     22613
#     47416
#     59719
#     82749
#     99087
#     107534
#     122364
#     144467
#     159602
#     183944
#     206501
#     214542
#     236322
#     253408
#     260991
#     276820
#     297321
# 
# Disc length: 4152
# 
# Revision: 1
# Processed by: cddbd v1.5.2PL0 Copyright (c) Steve Scherf et al.
# Submitted via: fre:ac v1.0.31
# 
DISCID=f3103612
DTITLE=Sister Rosetta Tharpe - Sing Sister Sing
DYEAR=2003
DGENRE=Blues
TTITLE0=Precious Lord
TTITLE1=Peace in the Valley
TTITLE2=Didn't It Rain
TTITLE3=The Gospel Train
TTITLE4=Sometimes I Feel Like a Motherless Child
TTITLE5=He's Got the Whole World in His Hands
TTITLE6=Can't No Grave Hold My Body Down
TTITLE7=Mansions in the Sky
TTITLE8=Is Everybody Happy
TTITLE9=Vacation in the Sky
TTITLE10=Two Little Fishes, Five Loaves of Bread
TTITLE11=Can't Sit Town
TTITLE12=Nobody Knows the Trouble I've Seen
TTITLE13=Jonah in the Whale
TTITLE14=Travelin' Shoes
TTITLE15=That's All
TTITLE16=Go Ahead
TTITLE17=Down by the River
EXTD=
EXTT0=
EXTT1=
EXTT2=
EXTT3=
EXTT4=
EXTT5=
EXTT6=
EXTT7=
EXTT8=
EXTT9=
EXTT10=
EXTT11=
EXTT12=
EXTT13=
EXTT14=
EXTT15=
EXTT16=
EXTT17=
PLAYORDER=
